<?xml version="1.0" encoding="utf-8"?>
<!-- Generator: Adobe Illustrator 23.1.1, SVG Export Plug-In . SVG Version: 6.00 Build 0)  -->
<svg version="1.1" id="Calque_1" xmlns="http://www.w3.org/2000/svg" xmlns:xlink="http://www.w3.org/1999/xlink" x="0px" y="0px"
	 viewBox="0 0 64 64" style="enable-background:new 0 0 64 64;" xml:space="preserve">
<style type="text/css">
	.st0{fill:#0099FF;}
	.st1{fill:none;stroke:#000000;stroke-miterlimit:10;}
</style>
<g>
	<g>
		<path class="st0" d="M35.4,31.27c1.41-0.85,1.41-2.25,0-3.1L15.27,16.05c-1.41-0.85-2.57-0.2-2.57,1.45v24.45
			c0,1.65,1.16,2.3,2.57,1.45L35.4,31.27z"/>
		<path class="st1" d="M35.4,31.27c1.41-0.85,1.41-2.25,0-3.1L15.27,16.05c-1.41-0.85-2.57-0.2-2.57,1.45v24.45
			c0,1.65,1.16,2.3,2.57,1.45L35.4,31.27z"/>
	</g>
	<g>
		<path class="st0" d="M52.04,31.27c1.41-0.85,1.41-2.25,0-3.1L31.92,16.05c-1.41-0.85-2.57-0.2-2.57,1.45v24.45
			c0,1.65,1.16,2.3,2.57,1.45L52.04,31.27z"/>
		<path class="st1" d="M52.04,31.27c1.41-0.85,1.41-2.25,0-3.1L31.92,16.05c-1.41-0.85-2.57-0.2-2.57,1.45v24.45
			c0,1.65,1.16,2.3,2.57,1.45L52.04,31.27z"/>
	</g>
</g>
</svg>
