<?xml version="1.0" encoding="utf-8"?>
<!-- Generator: Adobe Illustrator 13.0.0, SVG Export Plug-In . SVG Version: 6.00 Build 14948)  -->
<!DOCTYPE svg PUBLIC "-//W3C//DTD SVG 1.1//EN" "http://www.w3.org/Graphics/SVG/1.1/DTD/svg11.dtd">
<svg version="1.1" id="Layer_1" xmlns="http://www.w3.org/2000/svg" xmlns:xlink="http://www.w3.org/1999/xlink" x="0px" y="0px"
	 width="400px" height="400px" viewBox="0 0 400 400" enable-background="new 0 0 400 400" xml:space="preserve">
<g>
	<g>
		<circle class="circle1" fill="#009AFF" stroke="#000000" cx="92.167" cy="64.5" r="17"/>
		<circle class="circle1" fill="#009AFF" stroke="#000000" cx="92.167" cy="118.5" r="17"/>
		<circle class="circle1" fill="#009AFF" stroke="#000000" cx="92.167" cy="172.5" r="17"/>
		<circle class="circle1" fill="#009AFF" stroke="#000000" cx="92.167" cy="226.5" r="17"/>
		<circle class="circle1" fill="#009AFF" stroke="#000000" cx="92.167" cy="118.5" r="17"/>
		<circle class="circle1" fill="#009AFF" stroke="#000000" cx="92.167" cy="280.5" r="17"/>
		<circle class="circle1" fill="#009AFF" stroke="#000000" cx="92.167" cy="172.5" r="17"/>
		<circle class="circle1" fill="#009AFF" stroke="#000000" cx="92.167" cy="334.5" r="17"/>
	</g>
	<g>
		<circle class="circle2" fill="#009AFF" stroke="#000000" cx="199.5" cy="64.5" r="17"/>
		<circle class="circle2" fill="#009AFF" stroke="#000000" cx="199.5" cy="118.5" r="17"/>
		<circle class="circle2" fill="#009AFF" stroke="#000000" cx="199.5" cy="172.5" r="17"/>
		<circle class="circle2" fill="#009AFF" stroke="#000000" cx="199.5" cy="226.5" r="17"/>
		<circle class="circle2" fill="#009AFF" stroke="#000000" cx="199.5" cy="118.5" r="17"/>
		<circle class="circle2" fill="#009AFF" stroke="#000000" cx="199.5" cy="280.5" r="17"/>
		<circle class="circle2" fill="#009AFF" stroke="#000000" cx="199.5" cy="172.5" r="17"/>
		<circle class="circle2" fill="#009AFF" stroke="#000000" cx="199.5" cy="334.5" r="17"/>
	</g>
	<g>
		<circle class="circle3" fill="#009AFF" stroke="#000000" cx="306.833" cy="64.5" r="17"/>
		<circle class="circle3" fill="#009AFF" stroke="#000000" cx="306.833" cy="118.5" r="17"/>
		<circle class="circle3" fill="#009AFF" stroke="#000000" cx="306.833" cy="172.5" r="17"/>
		<circle class="circle3" fill="#009AFF" stroke="#000000" cx="306.833" cy="226.5" r="17"/>
		<circle class="circle3" fill="#009AFF" stroke="#000000" cx="306.833" cy="118.5" r="17"/>
		<circle class="circle3" fill="#009AFF" stroke="#000000" cx="306.833" cy="280.5" r="17"/>
		<circle class="circle3" fill="#009AFF" stroke="#000000" cx="306.833" cy="172.5" r="17"/>
		<circle class="circle3" fill="#009AFF" stroke="#000000" cx="306.833" cy="334.5" r="17"/>
	</g>
	<g>
		<line fill="none" stroke="#000000" stroke-width="2" x1="92.167" y1="64.5" x2="199.5" y2="64.5"/>
		<line fill="none" stroke="#000000" stroke-width="2" x1="92.167" y1="64.5" x2="199.5" y2="118.5"/>
		<line fill="none" stroke="#000000" stroke-width="2" x1="92.167" y1="64.5" x2="199.5" y2="172.5"/>
		<line fill="none" stroke="#000000" stroke-width="2" x1="92.167" y1="64.5" x2="199.5" y2="226.5"/>
		<line fill="none" stroke="#000000" stroke-width="2" x1="92.167" y1="64.5" x2="199.5" y2="280.5"/>
		<line fill="none" stroke="#000000" stroke-width="2" x1="92.167" y1="64.5" x2="199.5" y2="334.5"/>
		<line fill="none" stroke="#000000" stroke-width="2" x1="92.167" y1="118.5" x2="199.5" y2="64.5"/>
		<line fill="none" stroke="#000000" stroke-width="2" x1="92.167" y1="118.5" x2="199.5" y2="118.5"/>
		<line fill="none" stroke="#000000" stroke-width="2" x1="92.167" y1="118.5" x2="199.5" y2="172.5"/>
		<line fill="none" stroke="#000000" stroke-width="2" x1="92.167" y1="118.5" x2="199.5" y2="226.5"/>
		<line fill="none" stroke="#000000" stroke-width="2" x1="92.167" y1="118.5" x2="199.5" y2="280.5"/>
		<line fill="none" stroke="#000000" stroke-width="2" x1="92.167" y1="118.5" x2="199.5" y2="334.5"/>
		<line fill="none" stroke="#000000" stroke-width="2" x1="92.167" y1="172.5" x2="199.5" y2="64.5"/>
		<line fill="none" stroke="#000000" stroke-width="2" x1="92.167" y1="172.5" x2="199.5" y2="118.5"/>
		<line fill="none" stroke="#000000" stroke-width="2" x1="92.167" y1="172.5" x2="199.5" y2="172.5"/>
		<line fill="none" stroke="#000000" stroke-width="2" x1="92.167" y1="172.5" x2="199.5" y2="226.5"/>
		<line fill="none" stroke="#000000" stroke-width="2" x1="92.167" y1="172.5" x2="199.5" y2="280.5"/>
		<line fill="none" stroke="#000000" stroke-width="2" x1="92.167" y1="172.5" x2="199.5" y2="334.5"/>
		<line fill="none" stroke="#000000" stroke-width="2" x1="92.167" y1="226.5" x2="199.5" y2="64.5"/>
		<line fill="none" stroke="#000000" stroke-width="2" x1="92.167" y1="226.5" x2="199.5" y2="118.5"/>
		<line fill="none" stroke="#000000" stroke-width="2" x1="92.167" y1="226.5" x2="199.5" y2="172.5"/>
		<line fill="none" stroke="#000000" stroke-width="2" x1="92.167" y1="226.5" x2="199.5" y2="226.5"/>
		<line fill="none" stroke="#000000" stroke-width="2" x1="92.167" y1="226.5" x2="199.5" y2="280.5"/>
		<line fill="none" stroke="#000000" stroke-width="2" x1="92.167" y1="226.5" x2="199.5" y2="334.5"/>
		<line fill="none" stroke="#000000" stroke-width="2" x1="92.167" y1="280.5" x2="199.5" y2="64.5"/>
		<line fill="none" stroke="#000000" stroke-width="2" x1="92.167" y1="280.5" x2="199.5" y2="118.5"/>
		<line fill="none" stroke="#000000" stroke-width="2" x1="92.167" y1="280.5" x2="199.5" y2="172.5"/>
		<line fill="none" stroke="#000000" stroke-width="2" x1="92.167" y1="280.5" x2="199.5" y2="226.5"/>
		<line fill="none" stroke="#000000" stroke-width="2" x1="92.167" y1="280.5" x2="199.5" y2="280.5"/>
		<line fill="none" stroke="#000000" stroke-width="2" x1="92.167" y1="280.5" x2="199.5" y2="334.5"/>
		<line fill="none" stroke="#000000" stroke-width="2" x1="92.167" y1="334.5" x2="199.5" y2="64.5"/>
		<line fill="none" stroke="#000000" stroke-width="2" x1="92.167" y1="334.5" x2="199.5" y2="118.5"/>
		<line fill="none" stroke="#000000" stroke-width="2" x1="92.167" y1="334.5" x2="199.5" y2="172.5"/>
		<line fill="none" stroke="#000000" stroke-width="2" x1="92.167" y1="334.5" x2="199.5" y2="226.5"/>
		<line fill="none" stroke="#000000" stroke-width="2" x1="92.167" y1="334.5" x2="199.5" y2="280.5"/>
		<line fill="none" stroke="#000000" stroke-width="2" x1="92.167" y1="334.5" x2="199.5" y2="334.5"/>
	</g>
	<g>
		<line fill="none" stroke="#000000" stroke-width="2" x1="199.5" y1="64.5" x2="306.833" y2="64.5"/>
		<line fill="none" stroke="#000000" stroke-width="2" x1="199.5" y1="64.5" x2="306.833" y2="118.5"/>
		<line fill="none" stroke="#000000" stroke-width="2" x1="199.5" y1="64.5" x2="306.833" y2="172.5"/>
		<line fill="none" stroke="#000000" stroke-width="2" x1="199.5" y1="64.5" x2="306.833" y2="226.5"/>
		<line fill="none" stroke="#000000" stroke-width="2" x1="199.5" y1="64.5" x2="306.833" y2="280.5"/>
		<line fill="none" stroke="#000000" stroke-width="2" x1="199.5" y1="64.5" x2="306.833" y2="334.5"/>
		<line fill="none" stroke="#000000" stroke-width="2" x1="199.5" y1="118.5" x2="306.833" y2="64.5"/>
		<line fill="none" stroke="#000000" stroke-width="2" x1="199.5" y1="118.5" x2="306.833" y2="118.5"/>
		<line fill="none" stroke="#000000" stroke-width="2" x1="199.5" y1="118.5" x2="306.833" y2="172.5"/>
		<line fill="none" stroke="#000000" stroke-width="2" x1="199.5" y1="118.5" x2="306.833" y2="226.5"/>
		<line fill="none" stroke="#000000" stroke-width="2" x1="199.5" y1="118.5" x2="306.833" y2="280.5"/>
		<line fill="none" stroke="#000000" stroke-width="2" x1="199.5" y1="118.5" x2="306.833" y2="334.5"/>
		<line fill="none" stroke="#000000" stroke-width="2" x1="199.5" y1="172.5" x2="306.833" y2="64.5"/>
		<line fill="none" stroke="#000000" stroke-width="2" x1="199.5" y1="172.5" x2="306.833" y2="118.5"/>
		<line fill="none" stroke="#000000" stroke-width="2" x1="199.5" y1="172.5" x2="306.833" y2="172.5"/>
		<line fill="none" stroke="#000000" stroke-width="2" x1="199.5" y1="172.5" x2="306.833" y2="226.5"/>
		<line fill="none" stroke="#000000" stroke-width="2" x1="199.5" y1="172.5" x2="306.833" y2="280.5"/>
		<line fill="none" stroke="#000000" stroke-width="2" x1="199.5" y1="172.5" x2="306.833" y2="334.5"/>
		<line fill="none" stroke="#000000" stroke-width="2" x1="199.5" y1="226.5" x2="306.833" y2="64.5"/>
		<line fill="none" stroke="#000000" stroke-width="2" x1="199.5" y1="226.5" x2="306.833" y2="118.5"/>
		<line fill="none" stroke="#000000" stroke-width="2" x1="199.5" y1="226.5" x2="306.833" y2="172.5"/>
		<line fill="none" stroke="#000000" stroke-width="2" x1="199.5" y1="226.5" x2="306.833" y2="226.5"/>
		<line fill="none" stroke="#000000" stroke-width="2" x1="199.5" y1="226.5" x2="306.833" y2="280.5"/>
		<line fill="none" stroke="#000000" stroke-width="2" x1="199.5" y1="226.5" x2="306.833" y2="334.5"/>
		<line fill="none" stroke="#000000" stroke-width="2" x1="199.5" y1="280.5" x2="306.833" y2="64.5"/>
		<line fill="none" stroke="#000000" stroke-width="2" x1="199.5" y1="280.5" x2="306.833" y2="118.5"/>
		<line fill="none" stroke="#000000" stroke-width="2" x1="199.5" y1="280.5" x2="306.833" y2="172.5"/>
		<line fill="none" stroke="#000000" stroke-width="2" x1="199.5" y1="280.5" x2="306.833" y2="226.5"/>
		<line fill="none" stroke="#000000" stroke-width="2" x1="199.5" y1="280.5" x2="306.833" y2="280.5"/>
		<line fill="none" stroke="#000000" stroke-width="2" x1="199.5" y1="280.5" x2="306.833" y2="334.5"/>
		<line fill="none" stroke="#000000" stroke-width="2" x1="199.5" y1="334.5" x2="306.833" y2="64.5"/>
		<line fill="none" stroke="#000000" stroke-width="2" x1="199.5" y1="334.5" x2="306.833" y2="118.5"/>
		<line fill="none" stroke="#000000" stroke-width="2" x1="199.5" y1="334.5" x2="306.833" y2="172.5"/>
		<line fill="none" stroke="#000000" stroke-width="2" x1="199.5" y1="334.5" x2="306.833" y2="226.5"/>
		<line fill="none" stroke="#000000" stroke-width="2" x1="199.5" y1="334.5" x2="306.833" y2="280.5"/>
		<line fill="none" stroke="#000000" stroke-width="2" x1="199.5" y1="334.5" x2="306.833" y2="334.5"/>
	</g>
	<g>
		<circle fill="#009AFF" stroke="#000000" cx="26.833" cy="118.5" r="17"/>
		<circle fill="#009AFF" stroke="#000000" cx="26.833" cy="172.5" r="17"/>
		<circle fill="#009AFF" stroke="#000000" cx="26.833" cy="226.5" r="17"/>
		<circle fill="#009AFF" stroke="#000000" cx="26.833" cy="118.5" r="17"/>
		<circle fill="#009AFF" stroke="#000000" cx="26.833" cy="280.5" r="17"/>
		<circle fill="#009AFF" stroke="#000000" cx="26.833" cy="172.5" r="17"/>
		<line fill="none" stroke="#000000" x1="26.833" y1="118.5" x2="92.167" y2="64.5"/>
		<line fill="none" stroke="#000000" x1="26.833" y1="118.5" x2="92.167" y2="118.5"/>
		<line fill="none" stroke="#000000" x1="26.833" y1="118.5" x2="92.167" y2="172.5"/>
		<line fill="none" stroke="#000000" x1="26.833" y1="118.5" x2="92.167" y2="226.5"/>
		<line fill="none" stroke="#000000" x1="26.833" y1="118.5" x2="92.167" y2="280.5"/>
		<line fill="none" stroke="#000000" x1="26.833" y1="118.5" x2="92.167" y2="334.5"/>
		<line fill="none" stroke="#000000" x1="26.833" y1="172.5" x2="92.167" y2="64.5"/>
		<line fill="none" stroke="#000000" x1="26.833" y1="172.5" x2="92.167" y2="118.5"/>
		<line fill="none" stroke="#000000" x1="26.833" y1="172.5" x2="92.167" y2="172.5"/>
		<line fill="none" stroke="#000000" x1="26.833" y1="172.5" x2="92.167" y2="226.5"/>
		<line fill="none" stroke="#000000" x1="26.833" y1="172.5" x2="92.167" y2="280.5"/>
		<line fill="none" stroke="#000000" x1="26.833" y1="172.5" x2="92.167" y2="334.5"/>
		<line fill="none" stroke="#000000" x1="26.833" y1="226.5" x2="92.167" y2="64.5"/>
		<line fill="none" stroke="#000000" x1="26.833" y1="226.5" x2="92.167" y2="118.5"/>
		<line fill="none" stroke="#000000" x1="26.833" y1="226.5" x2="92.167" y2="172.5"/>
		<line fill="none" stroke="#000000" x1="26.833" y1="226.5" x2="92.167" y2="226.5"/>
		<line fill="none" stroke="#000000" x1="26.833" y1="226.5" x2="92.167" y2="280.5"/>
		<line fill="none" stroke="#000000" x1="26.833" y1="226.5" x2="92.167" y2="334.5"/>
		<line fill="none" stroke="#000000" x1="26.833" y1="280.5" x2="92.167" y2="64.5"/>
		<line fill="none" stroke="#000000" x1="26.833" y1="280.5" x2="92.167" y2="118.5"/>
		<line fill="none" stroke="#000000" x1="26.833" y1="280.5" x2="92.167" y2="172.5"/>
		<line fill="none" stroke="#000000" x1="26.833" y1="280.5" x2="92.167" y2="226.5"/>
		<line fill="none" stroke="#000000" x1="26.833" y1="280.5" x2="92.167" y2="280.5"/>
		<line fill="none" stroke="#000000" x1="26.833" y1="280.5" x2="92.167" y2="334.5"/>
	</g>
	<g>
		<circle fill="#009AFF" stroke="#000000" cx="372.167" cy="280.5" r="17"/>
		<circle fill="#009AFF" stroke="#000000" cx="372.167" cy="226.5" r="17"/>
		<circle fill="#009AFF" stroke="#000000" cx="372.167" cy="172.5" r="17"/>
		<circle fill="#009AFF" stroke="#000000" cx="372.167" cy="280.5" r="17"/>
		<circle fill="#009AFF" stroke="#000000" cx="372.167" cy="118.5" r="17"/>
		<circle fill="#009AFF" stroke="#000000" cx="372.167" cy="226.5" r="17"/>
		<line fill="none" stroke="#000000" x1="372.167" y1="280.5" x2="306.833" y2="334.5"/>
		<line fill="none" stroke="#000000" x1="372.167" y1="280.5" x2="306.833" y2="280.5"/>
		<line fill="none" stroke="#000000" x1="372.167" y1="280.5" x2="306.833" y2="226.5"/>
		<line fill="none" stroke="#000000" x1="372.167" y1="280.5" x2="306.833" y2="172.5"/>
		<line fill="none" stroke="#000000" x1="372.167" y1="280.5" x2="306.833" y2="118.5"/>
		<line fill="none" stroke="#000000" x1="372.167" y1="280.5" x2="306.833" y2="64.5"/>
		<line fill="none" stroke="#000000" x1="372.167" y1="226.5" x2="306.833" y2="334.5"/>
		<line fill="none" stroke="#000000" x1="372.167" y1="226.5" x2="306.833" y2="280.5"/>
		<line fill="none" stroke="#000000" x1="372.167" y1="226.5" x2="306.833" y2="226.5"/>
		<line fill="none" stroke="#000000" x1="372.167" y1="226.5" x2="306.833" y2="172.5"/>
		<line fill="none" stroke="#000000" x1="372.167" y1="226.5" x2="306.833" y2="118.5"/>
		<line fill="none" stroke="#000000" x1="372.167" y1="226.5" x2="306.833" y2="64.5"/>
		<line fill="none" stroke="#000000" x1="372.167" y1="172.5" x2="306.833" y2="334.5"/>
		<line fill="none" stroke="#000000" x1="372.167" y1="172.5" x2="306.833" y2="280.5"/>
		<line fill="none" stroke="#000000" x1="372.167" y1="172.5" x2="306.833" y2="226.5"/>
		<line fill="none" stroke="#000000" x1="372.167" y1="172.5" x2="306.833" y2="172.5"/>
		<line fill="none" stroke="#000000" x1="372.167" y1="172.5" x2="306.833" y2="118.5"/>
		<line fill="none" stroke="#000000" x1="372.167" y1="172.5" x2="306.833" y2="64.5"/>
		<line fill="none" stroke="#000000" x1="372.167" y1="118.5" x2="306.833" y2="334.5"/>
		<line fill="none" stroke="#000000" x1="372.167" y1="118.5" x2="306.833" y2="280.5"/>
		<line fill="none" stroke="#000000" x1="372.167" y1="118.5" x2="306.833" y2="226.5"/>
		<line fill="none" stroke="#000000" x1="372.167" y1="118.5" x2="306.833" y2="172.5"/>
		<line fill="none" stroke="#000000" x1="372.167" y1="118.5" x2="306.833" y2="118.5"/>
		<line fill="none" stroke="#000000" x1="372.167" y1="118.5" x2="306.833" y2="64.5"/>
	</g>
</g>
</svg>
